<svg width="23" height="22" fill="none" xmlns="http://www.w3.org/2000/svg" id='heart'><path d="m11.784 3.942-1.065-1.084C9.481 1.6 7.875.975 6.313 1.001a5.33 5.33 0 0 0-3.746 1.593c-2.187 2.224-2.07 5.923.26 8.294L3.89 11.97 11.784 20" fill="#fff"/><path d="m11.784 3.942-1.065-1.084C9.481 1.6 7.875.975 6.313 1.001a5.33 5.33 0 0 0-3.746 1.593c-2.187 2.224-2.07 5.923.26 8.294L3.89 11.97 11.784 20" stroke="" stroke-width="2" stroke-linecap="square"/><g><path d="m11.784 4.005 1.008-1.07c1.173-1.243 2.695-1.86 4.175-1.834a4.95 4.95 0 0 1 3.549 1.573c2.071 2.197 1.961 5.85-.247 8.192l-1.008 1.07-7.477 7.93" fill="#fff"/><path d="m11.784 4.005 1.008-1.07c1.173-1.243 2.695-1.86 4.175-1.834a4.95 4.95 0 0 1 3.549 1.573c2.071 2.197 1.961 5.85-.247 8.192l-1.008 1.07-7.477 7.93" stroke="" stroke-width="2" stroke-linecap="square"/></g></svg>