<svg width="23" height="22" viewBox="0 0 23 22" fill="none" xmlns="http://www.w3.org/2000/svg">
<g id="heart">
<g id="path865">
<path d="M11.7838 3.94161L10.7191 2.85843C9.48105 1.59896 7.87457 0.975269 6.31271 1.00075C4.93461 1.02324 3.59129 1.55114 2.56652 2.59367C0.380338 4.81775 0.496406 8.51687 2.82676 10.8876L3.89148 11.9708L11.7838 20" fill="white"/>
<path d="M11.7838 3.94161L10.7191 2.85843C9.48105 1.59896 7.87457 0.975269 6.31271 1.00075C4.93461 1.02324 3.59129 1.55114 2.56652 2.59367C0.380338 4.81775 0.496406 8.51687 2.82676 10.8876L3.89148 11.9708L11.7838 20" stroke="#4D4D4D" stroke-width="2" stroke-linecap="square"/>
</g>
<g id="path865_2">
<path d="M11.7838 4.00534L12.7925 2.93551C13.9653 1.69156 15.4872 1.07555 16.9669 1.10072C18.2725 1.12292 19.5451 1.64432 20.5159 2.67401C22.587 4.87069 22.4771 8.52423 20.2694 10.8658L19.2607 11.9356L11.7838 19.8659" fill="white"/>
<path d="M11.7838 4.00534L12.7925 2.93551C13.9653 1.69156 15.4872 1.07555 16.9669 1.10072C18.2725 1.12292 19.5451 1.64432 20.5159 2.67401C22.587 4.87069 22.4771 8.52423 20.2694 10.8658L19.2607 11.9356L11.7838 19.8659" stroke="#4D4D4D" stroke-width="2" stroke-linecap="square"/>
</g>
</g>
</svg>
